<?xml version="1.0" standalone="no"?><!DOCTYPE svg PUBLIC "-//W3C//DTD SVG 1.1//EN" "http://www.w3.org/Graphics/SVG/1.1/DTD/svg11.dtd"><svg t="1673104901104" class="icon" viewBox="0 0 1024 1024" version="1.1" xmlns="http://www.w3.org/2000/svg" p-id="2434" width="32" height="32" xmlns:xlink="http://www.w3.org/1999/xlink"><path d="M509.952364 82.454944c-236.668211 0-428.52175 191.854563-428.52175 428.522774 0 236.664118 191.853539 428.52175 428.52175 428.52175 236.665141 0 428.522774-191.857633 428.522774-428.52175C938.475138 274.309506 746.617505 82.454944 509.952364 82.454944L509.952364 82.454944zM526.557554 749.364059c-8.668427 8.844435-17.659195 11.850909-29.826306 11.850909-12.161994 0-21.071921-3.006474-29.546943-11.850909-8.485255-8.849552-11.299347-18.126846-11.299347-30.65723 0-12.534478 2.815115-21.717627 11.299347-30.377868 8.475022-8.655124 17.193591-11.576663 28.995381-11.576663 12.526291 0 21.710464 2.920516 30.377868 11.576663 8.655124 8.66024 11.577686 17.844413 11.577686 30.377868C538.134217 731.237213 535.212678 740.514507 526.557554 749.364059L526.557554 749.364059zM641.7409 423.552575c-3.800559 12.051477-9.940396 24.332175-18.412348 36.824697-4.916986 7.592932-16.739243 20.086477-35.488259 37.495986-17.410532 16.968463-28.352745 28.906353-32.80822 35.818787-4.466732 6.92676-8.267291 16.068977-11.384281 27.453259-3.125177 11.380188-5.133927 27.346835-6.02625 47.874357 0 0-2.752694 32.350802-40.748053 31.494295-26.855648-0.682545-31.994692-23.550369-31.425733-34.406624l2.287089-27.142174c4.000104-21.710464 5.383614-31.634488 15.426341-54.849212 10.04682-23.203468 20.286022-38.122249 40.568974-62.278415 18.689664-22.257933 33.973766-42.748616 38.441521-50.116421 4.455475-7.362688 6.696516-16.174378 6.696516-26.446325 0-13.389962-6.209422-30.051433-17.140379-39.422871-10.94733-9.371438-30.271444-19.996426-48.566112-19.996426-18.747993 0-42.228777 7.470135-54.280254 18.854417-12.051477 11.380188-16.567327 30.268374-16.567327 48.566112 0 0 8.856715 40.404222-35.425837 40.404222-40.650839 0-38.037315-35.573193-38.037315-35.573193-0.449231-40.612976 13.160741-74.320683 40.842197-101.102652 27.219945-26.782993 63.158459-40.176025 107.801215-40.176025 28.561499 0 53.000098 5.473665 73.314773 16.403598 20.306488 10.946306 36.493146 26.782993 48.544623 47.539736 12.051477 20.756743 18.077727 42.748616 18.077727 65.955154C647.431505 399.22961 645.525086 411.502122 641.7409 423.552575L641.7409 423.552575zM641.7409 423.552575" fill="#ffa500" p-id="2435" data-spm-anchor-id="a313x.7781069.0.i3" class=""></path></svg>