<?xml version="1.0" standalone="no"?><!DOCTYPE svg PUBLIC "-//W3C//DTD SVG 1.1//EN" "http://www.w3.org/Graphics/SVG/1.1/DTD/svg11.dtd"><svg t="1673105123945" class="icon" viewBox="0 0 1024 1024" version="1.1" xmlns="http://www.w3.org/2000/svg" p-id="4083" width="32" height="32" xmlns:xlink="http://www.w3.org/1999/xlink"><path d="M187.690667 874.709333h-0.277334a37.504 37.504 0 0 1-26.602666-11.264 37.845333 37.845333 0 0 1-3.904-49.877333l166.762666-229.76-125.013333-125.056a38.229333 38.229333 0 0 1-6.058667-46.336 140.8 140.8 0 0 1 53.504-45.674667 154.24 154.24 0 0 1 67.84-15.552 161.792 161.792 0 0 1 51.84 8.533334l6.4 0.661333c5.781333 0.405333 10.901333 0.981333 15.701334 1.749333a161.877333 161.877333 0 0 0 104.277333-47.253333 144.874667 144.874667 0 0 0 58.474667-90.346667c0-5.802667 0-11.904-0.234667-17.664a80.576 80.576 0 0 1 15.658667-74.858666A84.949333 84.949333 0 0 1 626.858667 106.666667a85.525333 85.525333 0 0 1 54.08 19.328l1.962666 1.941333c18.88 18.432 207.253333 206.933333 209.066667 208.746667A85.930667 85.930667 0 0 1 917.333333 397.888a85.973333 85.973333 0 0 1-25.6 61.205333 67.456 67.456 0 0 1-46.549333 16.874667 199.210667 199.210667 0 0 1-30.229333-3.008 226.176 226.176 0 0 0-15.701334-0.362667h-1.493333a115.605333 115.605333 0 0 0-77.930667 45.205334 210.752 210.752 0 0 0-59.456 118.976c0.917333 7.850667 2.56 21.333333 2.858667 23.125333a144.298667 144.298667 0 0 1-57.258667 165.056 38.229333 38.229333 0 0 1-20.138666 5.717333 38.058667 38.058667 0 0 1-27.093334-11.2l-123.562666-123.733333L209.92 866.986667a36.266667 36.266667 0 0 1-22.229333 7.722666z" fill="#2F54EB" p-id="4084"></path></svg>