<?xml version="1.0" standalone="no"?><!DOCTYPE svg PUBLIC "-//W3C//DTD SVG 1.1//EN" "http://www.w3.org/Graphics/SVG/1.1/DTD/svg11.dtd"><svg t="1673099325483" class="icon" viewBox="0 0 1304 1024" version="1.1" xmlns="http://www.w3.org/2000/svg" p-id="900" xmlns:xlink="http://www.w3.org/1999/xlink" width="254.6875" height="200"><path d="M1078.06466969 815.07975268H758.54757525l-76.52300154 98.00314207c-18.79512286 22.82264978-52.35784332 28.19268512-75.1804931 9.39756142-4.02752609-2.68501767-6.71254376-5.37003534-9.39756142-9.39756142L520.92351765 815.07975268H218.85903765c-59.07038708 0-107.40070432-48.33031723-107.40070432-107.40070431V197.52570432c0-59.07038708 48.33031723-107.40070432 107.40070432-107.40070432h859.20563205c59.07038708 0 107.40070432 48.33031723 107.40070431 107.40070432v510.15334405c0 59.07038708-48.33031723 107.40070432-107.40070431 107.40070431z" fill="#2F77F1" p-id="901"></path><path d="M406.81026958 385.47693625c37.59024655 0 67.12544009 29.53519354 67.1254401 67.1254401s-29.53519354 67.12544009-67.1254401 67.12544009-67.12544009-29.53519354-67.1254401-67.12544009 29.53519354-67.12544009 67.1254401-67.1254401z m241.6515845 0c37.59024655 0 67.12544009 29.53519354 67.12543928 67.1254401s-29.53519354 67.12544009-67.12543928 67.12544009-67.12544009-29.53519354-67.12544009-67.12544009 29.53519354-67.12544009 67.12544009-67.1254401z m241.65158368 0c37.59024655 0 67.12544009 29.53519354 67.1254401 67.1254401s-29.53519354 67.12544009-67.1254401 67.12544009-67.12544009-29.53519354-67.1254401-67.12544009 29.53519354-67.12544009 67.1254401-67.1254401z" fill="#AFFCFE" p-id="902"></path></svg>